<svg width="256" height="256" viewBox="0 0 256 256" fill="none" xmlns="http://www.w3.org/2000/svg">
    <rect width="256" height="256" fill="#E8E8E8"/>
    <path d="M112.763 112.026C128.849 108.01 120.206 68.6115 103.864 72.1082C87.0978 75.6946 96.5606 116.072 112.763 112.026Z" fill="#C2C2C2"/>
    <path d="M71.4748 102.031C57.7777 110.77 79.6349 143.498 92.677 134.54C105.627 125.646 84.8256 93.5126 71.4748 102.031Z" fill="#C2C2C2"/>
    <path d="M143.249 119.348C138.008 116.193 124.379 112.234 112.868 121.011C96.4313 133.544 73.1541 185.857 106.523 185.695C118.87 185.635 122.417 179.042 131.276 178.617C140.129 178.073 144.379 184.239 156.657 182.952C189.844 179.471 160.963 130.012 143.249 119.348ZM138.006 165.794C133.29 169.39 127.705 167.768 125.558 166.475C118.3 162.105 106.466 141.84 120.065 140.414C125.096 139.886 126.837 142.413 130.464 142.19C134.094 142.015 135.547 139.314 140.606 139.29C154.278 139.224 144.74 160.659 138.006 165.794Z" fill="#C2C2C2"/>
    <path d="M142.368 110.406C158.916 112.658 163.889 71.4919 146.83 69.7565C130.202 68.0645 125.938 108.17 142.368 110.406Z" fill="#C2C2C2"/>
    <path d="M182.309 95.9645C168.104 88.955 150.955 123.164 164.803 130.592C178.751 138.073 196.884 103.156 182.309 95.9645Z" fill="#C2C2C2"/>
</svg>
